#!OML:ASF F:\VICON\USERDATA\INSTALL\SteveWalk\SteveWalk.ASF
:FULLY-SPECIFIED
:DEGREES
185
root -0.305607 15.9087 -5.6171 17.9115 -2.18669 5.69896
lowerback -14.6455 0.210284 -8.73838
upperback -5.62138 1.57293 -2.75499
thorax 2.06543 0.851079 2.2738
lowerneck -7.03421 -1.29731 -0.66582
upperneck 7.95786 -1.95238 3.06781
head 3.89858 -0.845878 1.03048
rclavicle 2.20511e-014 -3.57812e-014
rhumerus -26.0603 2.92694 -85.9648
rradius 58.8687
rwrist -18.5678
rhand -19.2248 -34.0339
rfingers 7.12502
rthumb 7.08814 -63.8952
lclavicle 2.20511e-014 -3.57812e-014
lhumerus -82.1083 36.5269 15.1762
lradius 10.3225
lwrist -55.8275
lhand -15.2388 -14.8745
lfingers 7.12502
lthumb 10.9344 14.8208
rfemur -13.1174 -3.04444 13.2533
rtibia 61.4695
rfoot 11.9234 10.5921
rtoes -6.89762
lfemur -49.4586 1.00501 -29.1906
ltibia 40.1536
lfoot -8.59112 -3.66867
ltoes -8.73009
186
root -0.289878 15.9329 -5.39759 17.7339 -2.23519 6.0274
lowerback -14.4901 0.115432 -8.91112
upperback -5.54357 1.46372 -2.89563
thorax 2.07354 0.794652 2.20293
lowerneck -6.94929 -1.28479 -0.657295
upperneck 7.74739 -1.93434 3.10948
head 3.80745 -0.837514 1.04305
rclavicle 2.24378e-014 -1.74931e-014
rhumerus -27.008 2.34217 -86.4462
rradius 58.2388
rwrist -18.9911
rhand -19.503 -34.7564
rfingers 7.12502
rthumb 6.8196 -64.6266
lclavicle 2.24378e-014 -1.74931e-014
lhumerus -81.4544 37.4015 15.918
lradius 10.4151
lwrist -55.1123
lhand -15.3729 -15.1022
lfingers 7.12502
lthumb 10.8051 14.5998
rfemur -14.6959 -3.63283 12.8223
rtibia 64.1168
rfoot 9.26813 9.65213
rtoes -10.7317
lfemur -48.4003 0.598185 -29.4395
ltibia 40.501
lfoot -9.40392 -2.90271
ltoes -8.36012
187
root -0.266108 15.9617 -5.17703 17.6131 -2.06315 6.10002
lowerback -14.2787 0.0127503 -8.64789
upperback -5.61418 1.26612 -2.99169
thorax 1.91626 0.700528 1.92137
lowerneck -6.76133 -1.20999 -0.631577
upperneck 7.84214 -1.84566 3.18479
head 3.80268 -0.790273 1.06931
rclavicle 1.02133e-014 -7.95139e-015
rhumerus -27.9967 1.75689 -86.8839
rradius 57.1706
rwrist -18.5328
rhand -19.0919 -34.8504
rfingers 7.12502
rthumb 7.2164 -64.7073
lclavicle 1.02133e-014 -7.95139e-015
lhumerus -79.6317 37.617 18.6055
lradius 10.5327
lwrist -52.8884
lhand -15.891 -15.6531
lfingers 7.12502
lthumb 10.3053 14.0744
rfemur -16.4811 -4.51895 12.7286
rtibia 66.6565
rfoot 6.80875 8.6696
rtoes -15.4776
lfemur -47.3316 -0.00963203 -29.3682
ltibia 40.7098
lfoot -10.2944 -2.25954
ltoes -6.10299
188
root -0.243678 15.9948 -4.96238 17.5754 -2.00438 5.9535
lowerback -14.2212 -0.0200459 -8.2267
upperback -5.62403 1.15949 -2.99252
thorax 1.89842 0.643578 1.66959
lowerneck -6.74522 -1.17631 -0.669119
upperneck 7.95509 -1.80141 3.20283
head 3.83925 -0.767857 1.08512
rclavicle -9.34909e-015 2.50469e-014
rhumerus -28.8191 1.11594 -87.1911
rradius 56.0561
rwrist -17.8112
rhand -18.5299 -35.1111
rfingers 7.12502
rthumb 7.75891 -64.9488
lclavicle -9.34909e-015 2.50469e-014
lhumerus -77.1628 37.7639 22.2864
lradius 10.7546
lwrist -49.9806
lhand -16.2985 -15.7097
lfingers 7.12502
lthumb 9.91219 14.037
rfemur -18.4941 -5.19489 12.8427
rtibia 69.0176
rfoot 5.24441 7.63254
rtoes -16.1284
lfemur -46.374 -0.399794 -29.152
ltibia 40.8426
lfoot -11.4301 -1.62318
ltoes -5.05049
